<svg width="33" height="33" viewBox="0 0 33 33" fill="none" xmlns="http://www.w3.org/2000/svg">
<rect width="16" height="16" rx="2" fill="#D9D9D9"/>
<path d="M12 4.5H5.5C4.94772 4.5 4.5 4.94772 4.5 5.5V8M12 11.5H5.5C4.94772 11.5 4.5 11.0523 4.5 10.5V8M4.5 8H9" stroke="#515151"/>
<rect x="17" width="16" height="16" rx="2" fill="#D9D9D9"/>
<path d="M29 11.5H22.5C21.9477 11.5 21.5 11.0523 21.5 10.5V5.5C21.5 4.94772 21.9477 4.5 22.5 4.5H29" stroke="#515151"/>
<rect x="8.5" y="17" width="16" height="16" rx="2" fill="#FF3030"/>
<path d="M12.5 29V25.5M12.5 25.5V22.5C12.5 21.9477 12.9477 21.5 13.5 21.5H19C19.5523 21.5 20 21.9477 20 22.5V24.5C20 25.0523 19.5523 25.5 19 25.5H18.5M12.5 25.5H16.5H18.5M18.5 25.5L19.2071 26.2071C19.3946 26.3946 19.5 26.649 19.5 26.9142V29" stroke="white"/>
</svg>
