<svg width="67" height="20" viewBox="0 0 67 20" fill="none" xmlns="http://www.w3.org/2000/svg">
<rect width="67" height="20" fill="#181818"/>
<rect x="3" y="2" width="16" height="16" rx="2" fill="#D8560D"/>
<rect x="20" y="2" width="16" height="16" rx="2" fill="#D9D9D9"/>
<rect x="37" y="2" width="16" height="16" rx="2" fill="#D9D9D9"/>
<path d="M15 6.5H8.5C7.94772 6.5 7.5 6.94772 7.5 7.5V10M15 13.5H8.5C7.94772 13.5 7.5 13.0523 7.5 12.5V10M7.5 10H12" stroke="white"/>
<path d="M32 13.5H25.5C24.9477 13.5 24.5 13.0523 24.5 12.5V7.5C24.5 6.94772 24.9477 6.5 25.5 6.5H32" stroke="#515151"/>
<path d="M41 14V10.5M41 10.5V7.5C41 6.94772 41.4477 6.5 42 6.5H47.5C48.0523 6.5 48.5 6.94772 48.5 7.5V9.5C48.5 10.0523 48.0523 10.5 47.5 10.5H47M41 10.5H45H47M47 10.5L47.7071 11.2071C47.8946 11.3946 48 11.649 48 11.9142V14" stroke="#515151"/>
</svg>
